# xmcd CD database file
#
# Track frame offsets:
#	150
#	20040
#	41067
#	60380
#	83438
#	106327
#	123168
#	147302
#	170148
#	197783
#	228873
#
# Disc length: 3286 seconds
#
# Revision: 1
# Processed by: cddbd v1.5.1PL0 Copyright (c) Steve Scherf et al.
# Submitted via: CDex 1.51
#
DISCID=8e0cd40b
DTITLE=浅岡雄也 - コトノハ
DYEAR=1900
DGENRE=JPop
TTITLE0=MY GRADUATION
TTITLE1=若葉の季節
TTITLE2=翌檜
TTITLE3=Emotion 〜Remix〜
TTITLE4=風待ち
TTITLE5=夏が過ぎたら
TTITLE6=らびゅう
TTITLE7=泡沫
TTITLE8=いとしきもの
TTITLE9=コトノハ
TTITLE10=Life gose on 〜uyax ver.〜
EXTD=
EXTT0=
EXTT1=
EXTT2=
EXTT3=
EXTT4=
EXTT5=
EXTT6=
EXTT7=
EXTT8=
EXTT9=
EXTT10=
PLAYORDER=
